<?xml version="1.0" encoding="UTF-8"?>
<svg version="1.1" xmlns="http://www.w3.org/2000/svg" width="621" height="607">
<path d="M0 0 C1.93330809 -0.00318746 3.86661393 -0.00812573 5.7999137 -0.01463282 C11.04221666 -0.02730044 16.28420444 -0.01544967 21.52648628 0.00089574 C27.20667208 0.0141749 32.88682618 0.00412609 38.5670166 -0.00286865 C49.6636698 -0.01290064 60.76020286 -0.00173679 71.85684111 0.01683195 C84.79104965 0.03769144 97.72523284 0.03745722 110.65945504 0.03648679 C134.43201196 0.03545768 158.20450455 0.05547033 181.97703987 0.08549167 C203.65778275 0.11277035 225.33848144 0.1252125 247.01924133 0.12387085 C248.41312071 0.12379003 249.8070001 0.12370931 251.20087948 0.12362869 C252.23456947 0.12356764 252.23456947 0.12356764 253.28914208 0.12350535 C256.75846669 0.12330375 260.22779129 0.12312259 263.6971159 0.12296486 C264.38163799 0.12293143 265.06616007 0.12289801 265.77142526 0.12286357 C287.81840322 0.12197608 309.8653721 0.13621461 331.91234403 0.15169055 C340.92335136 0.15771676 349.93435488 0.15984886 358.945364 0.16075516 C369.92131153 0.16212032 380.89722411 0.17106292 391.87315681 0.18942077 C397.47049613 0.19864306 403.06779081 0.20475273 408.66513824 0.20223236 C413.79116403 0.20003612 418.91709118 0.20711657 424.0430964 0.22152941 C425.8945703 0.22514391 427.74605442 0.22542855 429.59752866 0.22199483 C438.86270883 0.20671765 447.66816185 0.33896109 456.73725891 2.49447632 C458.01858704 2.75228882 459.29991516 3.01010132 460.62007141 3.27572632 C462.22495422 3.63150757 462.22495422 3.63150757 463.86225891 3.99447632 C465.5058136 4.35025757 465.5058136 4.35025757 467.18257141 4.71322632 C468.02561829 4.97103882 468.86866516 5.22885132 469.73725891 5.49447632 C470.06725891 6.15447632 470.39725891 6.81447632 470.73725891 7.49447632 C472.065716 7.84674134 473.40033901 8.1758322 474.73725891 8.49447632 C481.38532559 11.61435643 487.28696261 15.42940539 492.95991516 20.07650757 C494.68964453 21.55742626 494.68964453 21.55742626 496.73725891 22.49447632 C497.39725891 23.48447632 498.05725891 24.47447632 498.73725891 25.49447632 C499.39725891 26.15447632 500.05725891 26.81447632 500.73725891 27.49447632 C516.81497355 44.54072799 521.20437178 65.08870026 521.12493896 87.71757507 C521.12911666 89.66002544 521.13459656 91.60247337 521.14125878 93.54491681 C521.15567498 98.85903569 521.1514806 104.17299897 521.14409196 109.48712623 C521.1393531 115.22755685 521.15187653 120.96795415 521.16210938 126.70837402 C521.17928886 137.94540711 521.1801391 149.18238426 521.17489647 160.41942707 C521.17085181 169.55517402 521.17230186 178.69090446 521.17764473 187.82665062 C521.17839315 189.12788904 521.17914157 190.42912746 521.17991268 191.76979735 C521.18144419 194.41343998 521.18298253 197.0570826 521.18452764 199.70072522 C521.19435343 217.4455497 521.19852332 235.19036709 521.19090176 252.93519306 C521.190456 253.97522813 521.190456 253.97522813 521.19000123 255.03627401 C521.1875525 260.66618377 521.18494081 266.29609346 521.1823171 271.92600314 C521.172217 293.88041584 521.18056784 315.83475203 521.20381165 337.78915405 C521.22990881 362.4783375 521.24267604 387.16747314 521.2356239 411.85667104 C521.23213332 424.92048117 521.23435308 437.9842285 521.25187492 451.04802895 C521.26660679 462.16941756 521.26721942 473.29069915 521.24980401 484.41208569 C521.24129969 490.08281557 521.23913078 495.75335433 521.25445557 501.42407417 C521.26832929 506.62234316 521.2635048 511.8202578 521.24421633 517.01850643 C521.24046426 518.89188707 521.24335521 520.76529628 521.25382798 522.63865141 C521.32782803 536.89761256 519.82611871 549.92704531 512.98725891 562.74447632 C512.64509338 563.40504028 512.30292786 564.06560425 511.95039368 564.7461853 C501.48864699 584.42440337 485.46169536 597.33368318 464.51621675 604.61407042 C453.81625871 607.78010204 443.72489063 608.0585823 432.62190247 608.00241089 C430.61911425 608.00702779 428.61632944 608.01338597 426.61355162 608.02131987 C421.14654425 608.03792784 415.67981829 608.02980576 410.21281028 608.01737499 C404.30269251 608.00829176 398.39262174 608.02231043 392.48251343 608.03329468 C380.91901151 608.05104959 369.35561364 608.04725339 357.7921077 608.03564411 C348.39136526 608.02645546 338.9906504 608.02528543 329.58990479 608.02973938 C328.58614945 608.03019769 328.58614945 608.03019769 327.56211623 608.03066526 C324.8453851 608.03191072 322.12865398 608.03318433 319.41192289 608.03450431 C293.95363432 608.04672619 268.49540237 608.03566893 243.03712254 608.01411673 C220.44446189 607.99513586 197.85189143 607.99683444 175.25923157 608.01596069 C149.8459785 608.03740313 124.43277542 608.04585924 99.01951456 608.03351164 C96.30788073 608.03222887 93.59624689 608.0309775 90.88461304 608.02973938 C89.88318434 608.02926492 89.88318434 608.02926492 88.86152476 608.02878087 C78.80258677 608.02424083 68.74368654 608.02955885 58.68475342 608.03965759 C47.2413725 608.05089409 35.79810128 608.04780272 24.35473287 608.02653462 C18.51994121 608.01604655 12.68533224 608.01186421 6.85054207 608.02513123 C1.50250594 608.03710726 -3.84517925 608.03040685 -9.19318384 608.00922102 C-11.12098072 608.00477699 -13.04880764 608.0069713 -14.97658497 608.01672417 C-29.39838357 608.08405166 -42.54346928 606.66435219 -55.51274109 599.74447632 C-56.17330505 599.40231079 -56.83386902 599.06014526 -57.51445007 598.70761108 C-73.34556367 590.2911427 -85.8876738 578.01639884 -93.26274109 561.49447632 C-93.92289734 558.89682007 -93.92289734 558.89682007 -94.32524109 556.43197632 C-94.7478963 553.8839692 -95.17739832 551.69386366 -96.19554681 549.31515115 C-100.89898232 536.88361698 -100.69132398 523.11125802 -100.62350464 510.0247345 C-100.62481597 508.11677788 -100.6274484 506.2088218 -100.63127214 504.30086857 C-100.63792467 499.10588441 -100.62605726 493.91108866 -100.61093795 488.71612847 C-100.59790562 483.09606162 -100.60237211 477.47600423 -100.60464478 471.85592651 C-100.60621298 462.13463794 -100.59685124 452.41341007 -100.57993126 442.69213676 C-100.55548425 428.63705307 -100.54773016 414.58199854 -100.54396728 400.52689589 C-100.53741173 377.71992721 -100.51750083 354.91299799 -100.48905945 332.10604858 C-100.46147372 309.95956591 -100.4402388 287.81309189 -100.42753601 265.66659546 C-100.42714143 264.98305974 -100.42674685 264.29952402 -100.42634032 263.5952751 C-100.42238451 256.73046813 -100.4185571 249.8656611 -100.41482374 243.00085401 C-100.38353971 185.49870578 -100.3306369 127.99659236 -100.26274109 70.49447632 C-99.60274109 70.49447632 -98.94274109 70.49447632 -98.26274109 70.49447632 C-97.93274109 66.20447632 -97.60274109 61.91447632 -97.26274109 57.49447632 C-96.60274109 57.49447632 -95.94274109 57.49447632 -95.26274109 57.49447632 C-95.07711609 55.94760132 -95.07711609 55.94760132 -94.88774109 54.36947632 C-94.32384295 50.87330786 -93.4759205 47.81050005 -92.26274109 44.49447632 C-91.60274109 44.49447632 -90.94274109 44.49447632 -90.26274109 44.49447632 C-89.99461609 43.60760132 -89.72649109 42.72072632 -89.45024109 41.80697632 C-87.78462543 37.16078527 -85.71753324 33.94926847 -82.26274109 30.49447632 C-81.93274109 29.50447632 -81.60274109 28.51447632 -81.26274109 27.49447632 C-79.20024109 26.80697632 -79.20024109 26.80697632 -77.26274109 26.49447632 C-77.26274109 25.83447632 -77.26274109 25.17447632 -77.26274109 24.49447632 C-71.78655061 19.49447632 -71.78655061 19.49447632 -69.26274109 19.49447632 C-69.26274109 18.83447632 -69.26274109 18.17447632 -69.26274109 17.49447632 C-67.11039734 16.05697632 -67.11039734 16.05697632 -64.32524109 14.49447632 C-60.63886901 12.63369737 -60.63886901 12.63369737 -58.26274109 9.49447632 C-57.45836609 9.37072632 -56.65399109 9.24697632 -55.82524109 9.11947632 C-52.70747643 8.57250006 -50.55076183 7.83558207 -47.68749601 6.59410727 C-42.49693781 4.48272792 -37.41327841 3.23785927 -31.90416241 2.27538109 C-30.95016506 2.10682819 -29.99616772 1.93827529 -29.01326136 1.76461472 C-19.3188481 0.16609367 -9.80262815 -0.05988474 0 0 Z " fill="#FBFBFB" transform="translate(100.26274108886719,-0.494476318359375)"/>
<path d="M0 0 C0.70881317 -0.00100708 1.41762634 -0.00201416 2.1479187 -0.00305176 C19.6216836 0.01368722 36.08311739 2.119656 52.8125 7.25 C53.97265625 7.58515625 55.1328125 7.9203125 56.328125 8.265625 C74.69910117 13.91211551 91.33064076 22.95996531 106.8125 34.25 C108.26269531 35.30380859 108.26269531 35.30380859 109.7421875 36.37890625 C146.94289199 65.26881506 169.20285591 107.52356309 176 153.6875 C181.28942711 196.71842058 169.12303013 238.91578553 145.9140625 274.921875 C144.38590841 277.34192571 143.00397849 279.6575523 141.8125 282.25 C143.1423662 283.60757174 144.47663071 284.96083496 145.8125 286.3125 C146.92625 287.44365234 146.92625 287.44365234 148.0625 288.59765625 C150.03514792 290.50025275 151.98997852 292.25345845 154.078125 294.01342773 C160.08883226 299.2594771 165.64564689 304.97281396 171.26635742 310.62869263 C173.35027833 312.72551216 175.43742509 314.81907366 177.52539062 316.91186523 C182.70769991 322.10746193 187.88452261 327.30851424 193.06152344 332.50939941 C197.44715141 336.91483622 201.83487507 341.31816585 206.2253418 345.71878052 C208.27014763 347.77001449 210.31189064 349.82426291 212.35351562 351.87866211 C217.82868106 357.37529901 223.27230182 362.83807945 229.19033813 367.86383057 C233.3180246 371.39102038 237.11568388 375.28832199 240.96801758 379.11035156 C241.99027494 380.12104234 243.01699565 381.12723832 244.0480957 382.12890625 C252.262724 390.11039384 259.8292287 397.86571017 260.0625 409.9375 C259.96348521 418.34138013 257.19082821 425.68876513 251.31640625 431.80859375 C245.30315488 437.37744779 239.12807687 440.43257397 230.875 440.75 C218.32564727 440.19471891 211.33518438 433.73023268 202.8125 425.25 C201.43011625 423.89503252 200.04768469 422.5401135 198.66448975 421.18597412 C196.12310102 418.69395072 193.59276249 416.19081044 191.0625 413.6875 C190.55666382 413.18897522 190.05082764 412.69045044 189.52966309 412.17681885 C188.08213051 410.74697638 186.64246191 409.30918599 185.203125 407.87109375 C184.35782227 407.0298999 183.51251953 406.18870605 182.64160156 405.32202148 C180.8125 403.25 180.8125 403.25 180.8125 401.25 C180.25156143 401.02644333 179.69062286 400.80288666 179.11268616 400.57255554 C176.1142093 398.84849848 174.29651703 396.68606492 172.00952148 394.08911133 C165.14359317 386.41863575 157.91197092 379.12806987 150.66015625 371.82421875 C149.9581201 371.11685892 149.25608395 370.40949909 148.53277397 369.68070412 C144.8354548 365.95693462 141.13466086 362.2366553 137.43139648 358.51879883 C134.37425333 355.44819025 131.32459925 352.3704157 128.28100586 349.28637695 C124.58349964 345.53977683 120.87407597 341.80539193 117.15551567 338.07969093 C115.74502132 336.66246942 114.33879676 335.2409852 112.93693733 333.81522179 C110.98903389 331.83593542 109.02620377 329.87275651 107.05883789 327.9128418 C106.19463478 327.02403069 106.19463478 327.02403069 105.31297302 326.11726379 C103.5509595 324.32404471 103.5509595 324.32404471 100.8125 322.25 C97.94748096 322.67165614 95.76292762 323.69555646 93.2734375 325.140625 C92.60957031 325.52089844 91.94570313 325.90117187 91.26171875 326.29296875 C90.57722656 326.69128906 89.89273437 327.08960938 89.1875 327.5 C48.4436679 351.08853437 1.55795865 356.22161179 -43.96875 344.84765625 C-73.6854856 336.84154663 -98.81873765 321.02099361 -121.1875 300.25 C-121.78046875 299.71117187 -122.3734375 299.17234375 -122.984375 298.6171875 C-145.14776529 277.6147367 -160.92747832 246.97164815 -168.0625 217.5625 C-168.25352295 216.78108643 -168.4445459 215.99967285 -168.64135742 215.19458008 C-171.77981143 201.23877893 -172.62750411 187.01108569 -172.625 172.75 C-172.62639984 171.97507202 -172.62779968 171.20014404 -172.62924194 170.4017334 C-172.60837791 156.23378653 -170.91610174 142.9546364 -167.1875 129.25 C-166.98463379 128.47833496 -166.78176758 127.70666992 -166.57275391 126.91162109 C-158.68757629 97.48548207 -142.31743154 71.88576612 -121.1875 50.25 C-120.64730225 49.68716309 -120.10710449 49.12432617 -119.55053711 48.54443359 C-88.7275634 16.92555129 -43.64759752 0.04298574 0 0 Z " fill="#4D36D0" transform="translate(269.1875,82.75)"/>
<path d="M0 0 C1.0530835 0.29003906 1.0530835 0.29003906 2.12744141 0.5859375 C18.79167853 5.30243702 33.65641152 12.93835854 47 24 C48.27230469 25.04414063 48.27230469 25.04414063 49.5703125 26.109375 C71.73537707 45.14770632 87.24062054 73.77800014 90 103 C92.37926558 137.84379445 83.92421589 171.0705949 61 198 C52.98769847 207.03514853 44.16075324 214.49813429 34 221 C33.43168457 221.36464355 32.86336914 221.72928711 32.27783203 222.10498047 C5.96552944 238.68811211 -26.58516596 243.23425189 -56.9375 236.96875 C-87.39832792 229.97489767 -115.23105829 211.27539219 -132.36254883 185.04248047 C-141.81829481 169.95027205 -147.19544518 154.34492268 -151 137 C-151.18264404 136.20134521 -151.36528809 135.40269043 -151.5534668 134.57983398 C-156.90647769 103.65295258 -147.6294488 71.327784 -129.89453125 45.9921875 C-128.00308003 43.58351309 -126.03908687 41.28442079 -124 39 C-122.97326172 37.77796875 -122.97326172 37.77796875 -121.92578125 36.53125 C-106.69038474 18.80676716 -86.59645126 7.19757206 -64.3125 0.6875 C-63.44544434 0.43266846 -62.57838867 0.17783691 -61.68505859 -0.0847168 C-42.59439481 -5.40016362 -19.03364674 -5.29492386 0 0 Z " fill="#FBFAFB" transform="translate(302,140)"/>
<path d="M0 0 C0.33 0 0.66 0 1 0 C1.6350252 26.08732352 0.52191596 48.97370085 -17 70 C-17 66.26046274 -15.87451608 64.95026875 -13.875 61.8125 C-7.00731134 50.26419594 -3.13329658 38.41447287 -2 25 C-1.91266602 23.99469238 -1.82533203 22.98938477 -1.73535156 21.95361328 C-1.10903547 14.63921132 -0.53639349 7.3215124 0 0 Z " fill="#CFD0D0" transform="translate(620,508)"/>
<path d="M0 0 C2.98311178 3.42796178 4.27517222 7.17554377 5.625 11.4375 C5.8415625 12.09298828 6.058125 12.74847656 6.28125 13.42382812 C8.49864638 20.24711265 9.14091827 26.12072884 9.09765625 33.23828125 C9.0962413 34.11904831 9.09482635 34.99981537 9.09336853 35.90727234 C9.08778937 38.70905003 9.07524071 41.51074662 9.0625 44.3125 C9.05748231 46.21679572 9.05291987 48.12109269 9.04882812 50.02539062 C9.03782677 54.68362481 9.02057649 59.34179867 9 64 C8.67 64 8.34 64 8 64 C7.97812622 62.78606567 7.97812622 62.78606567 7.95581055 61.54760742 C7.59770713 32.90235862 7.59770713 32.90235862 0.76953125 5.25 C0 3 0 3 0 0 Z " fill="#E7E7E7" transform="translate(612,44)"/>
<path d="M0 0 C1 3 1 3 -0.0390625 5.48828125 C-2.99746123 10.75656272 -5.90611379 15.54488854 -10 20 C-10 16.14596104 -8.6676838 14.41300705 -6.6875 11.125 C-5.76517578 9.58199219 -5.76517578 9.58199219 -4.82421875 8.0078125 C-3.92123047 6.51894531 -3.92123047 6.51894531 -3 5 C-1.99966795 3.33353261 -0.99954768 1.66693798 0 0 Z " fill="#C2C2C3" transform="translate(613,558)"/>
<path d="M0 0 C0.99 0.33 1.98 0.66 3 1 C1.35 2.98 -0.3 4.96 -2 7 C-2 3.89448334 -1.4606285 2.64738916 0 0 Z " fill="#3F27CE" transform="translate(178,175)"/>
<path d="" fill="#EEEEEE" transform="translate(0,0)"/>
<path d="" fill="#EEEFF0" transform="translate(0,0)"/>
</svg>
